<svg width="123" height="21" viewBox="0 0 123 21" fill="none" xmlns="http://www.w3.org/2000/svg">
<path d="M7.756 20C7.56933 20 7.41067 19.9347 7.28 19.804C7.14933 19.6733 7.084 19.5147 7.084 19.328V4.88L2.856 8.128C2.744 8.22133 2.604 8.268 2.436 8.268C2.212 8.268 2.03467 8.17467 1.904 7.988L0.7 6.42C0.606667 6.28933 0.56 6.15867 0.56 6.028C0.56 5.804 0.662667 5.61733 0.868 5.468L7.14 0.595999C7.34533 0.465332 7.57867 0.399999 7.84 0.399999H10.36C10.5467 0.399999 10.7053 0.465332 10.836 0.595999C10.9667 0.726666 11.032 0.885332 11.032 1.072V19.328C11.032 19.5147 10.9667 19.6733 10.836 19.804C10.7053 19.9347 10.5467 20 10.36 20H7.756ZM15.8443 20C15.6576 20 15.4989 19.9347 15.3683 19.804C15.2376 19.6733 15.1723 19.5147 15.1723 19.328V1.1C15.1723 0.894666 15.2283 0.726666 15.3403 0.595999C15.4709 0.465332 15.6389 0.399999 15.8443 0.399999H18.3643C18.5696 0.399999 18.7376 0.465332 18.8683 0.595999C18.9989 0.726666 19.0643 0.894666 19.0643 1.1V7.652L25.3083 0.903999C25.5883 0.567999 25.9523 0.399999 26.4003 0.399999H29.2563C29.4056 0.399999 29.5363 0.455999 29.6483 0.568C29.7789 0.68 29.8443 0.819999 29.8443 0.987999C29.8443 1.11867 29.7976 1.23067 29.7043 1.324L22.0883 9.78L30.2643 19.048C30.3389 19.1787 30.3763 19.3 30.3763 19.412C30.3763 19.58 30.3203 19.72 30.2083 19.832C30.0963 19.944 29.9656 20 29.8163 20H26.8763C26.4843 20 26.2043 19.9253 26.0363 19.776C25.8683 19.608 25.7749 19.5147 25.7563 19.496L19.0643 12.104V19.328C19.0643 19.5147 18.9989 19.6733 18.8683 19.804C18.7376 19.9347 18.5696 20 18.3643 20H15.8443ZM40.647 20.28C38.7057 20.28 37.2217 19.6173 36.195 18.292V19.328C36.195 19.5147 36.1297 19.6733 35.999 19.804C35.8684 19.9347 35.7004 20 35.495 20H33.255C33.0684 20 32.9097 19.9347 32.779 19.804C32.6484 19.6733 32.583 19.5147 32.583 19.328V0.791999C32.583 0.586666 32.6484 0.427999 32.779 0.316C32.9097 0.185333 33.0684 0.119999 33.255 0.119999H35.691C35.8964 0.119999 36.055 0.185333 36.167 0.316C36.2977 0.427999 36.363 0.586666 36.363 0.791999V7.008C37.4084 5.776 38.8364 5.16 40.647 5.16C42.5324 5.16 43.979 5.776 44.987 7.008C46.0137 8.22133 46.555 9.81733 46.611 11.796C46.6297 12.02 46.639 12.328 46.639 12.72C46.639 13.0933 46.6297 13.4013 46.611 13.644C46.5364 15.66 45.995 17.2747 44.987 18.488C43.979 19.6827 42.5324 20.28 40.647 20.28ZM39.583 17.256C41.5804 17.256 42.6444 16.024 42.775 13.56C42.7937 13.3733 42.803 13.0933 42.803 12.72C42.803 12.3467 42.7937 12.0667 42.775 11.88C42.6444 9.416 41.5804 8.184 39.583 8.184C38.5564 8.184 37.7724 8.51067 37.231 9.164C36.6897 9.81733 36.4004 10.6107 36.363 11.544C36.3444 11.768 36.335 12.132 36.335 12.636C36.335 13.1213 36.3444 13.476 36.363 13.7C36.4004 14.6893 36.6804 15.5293 37.203 16.22C37.7257 16.9107 38.519 17.256 39.583 17.256ZM50.9863 20C50.7996 20 50.6503 19.944 50.5383 19.832C50.4263 19.7013 50.3703 19.5427 50.3703 19.356V1.044C50.3703 0.857332 50.4263 0.707999 50.5383 0.595999C50.6503 0.465332 50.7996 0.399999 50.9863 0.399999H52.3863C52.5916 0.399999 52.7503 0.455999 52.8623 0.568C52.9743 0.68 53.0303 0.838666 53.0303 1.044V19.356C53.0303 19.5427 52.9649 19.7013 52.8343 19.832C52.7223 19.944 52.5729 20 52.3863 20H50.9863ZM62.9278 20.28C60.9678 20.28 59.4931 19.6453 58.5038 18.376C57.5331 17.1067 57.0105 15.5013 56.9358 13.56L56.9078 12.72L56.9358 11.88C57.0105 9.95733 57.5425 8.36133 58.5318 7.092C59.5211 5.804 60.9865 5.16 62.9278 5.16C64.8691 5.16 66.3811 5.85067 67.4638 7.232V0.763999C67.4638 0.577332 67.5198 0.427999 67.6318 0.316C67.7625 0.185333 67.9211 0.119999 68.1078 0.119999H69.3678C69.5545 0.119999 69.7038 0.185333 69.8158 0.316C69.9465 0.427999 70.0118 0.577332 70.0118 0.763999V19.356C70.0118 19.5427 69.9465 19.7013 69.8158 19.832C69.7038 19.944 69.5545 20 69.3678 20H68.1638C67.9771 20 67.8278 19.944 67.7158 19.832C67.6038 19.7013 67.5478 19.5427 67.5478 19.356V18.152C66.4838 19.5707 64.9438 20.28 62.9278 20.28ZM63.4598 18.096C64.7665 18.096 65.7465 17.6667 66.3998 16.808C67.0531 15.9307 67.4078 14.8947 67.4638 13.7C67.4825 13.4947 67.4918 13.14 67.4918 12.636C67.4918 12.1133 67.4825 11.7493 67.4638 11.544C67.4265 10.4053 67.0625 9.42533 66.3718 8.604C65.6998 7.764 64.7291 7.344 63.4598 7.344C62.1158 7.344 61.1358 7.764 60.5198 8.604C59.9038 9.444 59.5678 10.5453 59.5118 11.908L59.4838 12.72C59.4838 16.304 60.8091 18.096 63.4598 18.096ZM80.0008 20.28C78.0968 20.28 76.5755 19.692 75.4368 18.516C74.2981 17.3213 73.6728 15.6973 73.5608 13.644L73.5328 12.692L73.5608 11.768C73.6728 9.752 74.2981 8.14667 75.4368 6.952C76.5755 5.75733 78.0968 5.16 80.0008 5.16C82.0541 5.16 83.6408 5.81333 84.7608 7.12C85.8995 8.42667 86.4688 10.2 86.4688 12.44V12.944C86.4688 13.1307 86.4035 13.2893 86.2728 13.42C86.1608 13.532 86.0115 13.588 85.8248 13.588H76.1088V13.84C76.1648 15.0533 76.5381 16.0893 77.2288 16.948C77.9195 17.8067 78.8341 18.236 79.9728 18.236C80.8501 18.236 81.5595 18.068 82.1008 17.732C82.6608 17.3773 83.0808 17.0133 83.3608 16.64C83.5288 16.416 83.6595 16.2853 83.7528 16.248C83.8461 16.192 84.0048 16.164 84.2288 16.164H85.4608C85.6288 16.164 85.7688 16.2107 85.8808 16.304C86.0115 16.3973 86.0768 16.5187 86.0768 16.668C86.0768 17.0787 85.8248 17.5733 85.3208 18.152C84.8168 18.7307 84.0981 19.2347 83.1648 19.664C82.2501 20.0747 81.1955 20.28 80.0008 20.28ZM83.9208 11.684V11.6C83.9208 10.2933 83.5661 9.22933 82.8568 8.408C82.1475 7.58667 81.1955 7.176 80.0008 7.176C78.7875 7.176 77.8355 7.58667 77.1448 8.408C76.4541 9.22933 76.1088 10.2933 76.1088 11.6V11.684H83.9208ZM93.9054 20.28C92.9908 20.28 92.1414 20.0933 91.3574 19.72C90.5921 19.3467 89.9761 18.8427 89.5094 18.208C89.0614 17.5547 88.8374 16.836 88.8374 16.052C88.8374 14.82 89.3414 13.812 90.3494 13.028C91.3574 12.244 92.7294 11.7213 94.4654 11.46L98.6654 10.872V10.06C98.6654 8.13733 97.5548 7.176 95.3334 7.176C94.4748 7.176 93.7841 7.35333 93.2614 7.708C92.7388 8.044 92.3561 8.44533 92.1134 8.912C92.0388 9.09867 91.9548 9.22933 91.8614 9.304C91.7868 9.36 91.6748 9.388 91.5254 9.388H90.4334C90.2654 9.388 90.1161 9.332 89.9854 9.22C89.8734 9.08933 89.8174 8.94 89.8174 8.772C89.8174 8.34267 90.0134 7.848 90.4054 7.288C90.8161 6.70933 91.4414 6.21467 92.2814 5.804C93.1214 5.37467 94.1481 5.16 95.3614 5.16C97.4521 5.16 98.9454 5.64533 99.8414 6.616C100.756 7.58667 101.213 8.8 101.213 10.256V19.356C101.213 19.5427 101.148 19.7013 101.017 19.832C100.905 19.944 100.756 20 100.569 20H99.3374C99.1508 20 99.0014 19.944 98.8894 19.832C98.7774 19.7013 98.7214 19.5427 98.7214 19.356V18.124C98.3108 18.74 97.7134 19.2533 96.9294 19.664C96.1454 20.0747 95.1374 20.28 93.9054 20.28ZM94.4654 18.236C95.6974 18.236 96.7054 17.8347 97.4894 17.032C98.2734 16.2293 98.6654 15.0627 98.6654 13.532V12.748L95.3894 13.224C94.0454 13.4107 93.0281 13.728 92.3374 14.176C91.6468 14.624 91.3014 15.184 91.3014 15.856C91.3014 16.6213 91.6094 17.2093 92.2254 17.62C92.8601 18.0307 93.6068 18.236 94.4654 18.236ZM110.252 20.28C108.964 20.28 107.872 20.0747 106.976 19.664C106.099 19.2347 105.445 18.7493 105.016 18.208C104.587 17.6667 104.372 17.2187 104.372 16.864C104.372 16.6773 104.437 16.5373 104.568 16.444C104.699 16.332 104.839 16.276 104.988 16.276H106.164C106.276 16.276 106.36 16.2947 106.416 16.332C106.491 16.3693 106.584 16.4533 106.696 16.584C107.125 17.1067 107.601 17.5173 108.124 17.816C108.665 18.1147 109.384 18.264 110.28 18.264C111.288 18.264 112.091 18.0773 112.688 17.704C113.304 17.3307 113.612 16.7893 113.612 16.08C113.612 15.6133 113.481 15.24 113.22 14.96C112.959 14.68 112.52 14.428 111.904 14.204C111.307 13.98 110.411 13.7373 109.216 13.476C107.592 13.1213 106.444 12.608 105.772 11.936C105.1 11.264 104.764 10.396 104.764 9.332C104.764 8.64133 104.969 7.97867 105.38 7.344C105.791 6.69067 106.397 6.168 107.2 5.776C108.021 5.36533 108.992 5.16 110.112 5.16C111.288 5.16 112.287 5.356 113.108 5.748C113.948 6.14 114.573 6.59733 114.984 7.12C115.413 7.64267 115.628 8.08133 115.628 8.436C115.628 8.604 115.563 8.744 115.432 8.856C115.32 8.968 115.18 9.024 115.012 9.024H113.948C113.687 9.024 113.5 8.92133 113.388 8.716C113.071 8.36133 112.8 8.09067 112.576 7.904C112.371 7.69867 112.063 7.53067 111.652 7.4C111.241 7.25067 110.728 7.176 110.112 7.176C109.197 7.176 108.497 7.372 108.012 7.764C107.527 8.13733 107.284 8.64133 107.284 9.276C107.284 9.668 107.387 10.004 107.592 10.284C107.797 10.5453 108.189 10.7973 108.768 11.04C109.347 11.264 110.205 11.4973 111.344 11.74C113.117 12.1133 114.368 12.6453 115.096 13.336C115.843 14.0267 116.216 14.9133 116.216 15.996C116.216 16.7987 115.983 17.5267 115.516 18.18C115.068 18.8333 114.387 19.3467 113.472 19.72C112.576 20.0933 111.503 20.28 110.252 20.28Z" fill="#0B0B0B"/>
<path d="M119.935 20C119.748 20 119.589 19.944 119.459 19.832C119.347 19.7013 119.291 19.5427 119.291 19.356V17.424C119.291 17.2373 119.347 17.0787 119.459 16.948C119.589 16.8173 119.748 16.752 119.935 16.752H121.867C122.053 16.752 122.203 16.8173 122.315 16.948C122.445 17.0787 122.511 17.2373 122.511 17.424V19.356C122.511 19.5427 122.445 19.7013 122.315 19.832C122.203 19.944 122.053 20 121.867 20H119.935Z" fill="#FD8234"/>
</svg>
