<?xml version="1.0" encoding="UTF-8" standalone="yes"?>
<svg xmlns="http://www.w3.org/2000/svg" viewBox="0 0 24 24" width="192" height="192" fill="#000000">
  <path d="M12,2C6.477,2,2,6.477,2,12s4.477,10,10,10s10-4.477,10-10S17.523,2,12,2z M12,4.75c1.795,0,3.25,1.455,3.25,3.25 c0,1.795-1.455,3.25-3.25,3.25S8.75,9.795,8.75,8C8.75,6.205,10.205,4.75,12,4.75z M18.089,17.188C16.621,18.909,14.438,20,12,20 s-4.621-1.091-6.088-2.812c-0.381-0.447-0.296-1.118,0.173-1.471C7.602,14.576,10.366,14,12,14s4.398,0.576,5.916,1.717 C18.385,16.07,18.47,16.742,18.089,17.188z M18.555,12.997c-0.492-0.046-1.275-0.205-1.811-0.741 c-0.536-0.536-0.696-1.319-0.741-1.811c-0.024-0.257,0.188-0.468,0.444-0.444c0.492,0.046,1.275,0.205,1.811,0.741 c0.536,0.536,0.696,1.319,0.741,1.811C19.023,12.81,18.811,13.021,18.555,12.997z"/>
</svg>
